<svg xmlns="http://www.w3.org/2000/svg" viewBox="0 0 758.09 600.06"><defs><style>.cls-1{fill:#46aef0;}.cls-2{fill:#f4763a;}</style></defs><title>1LOGO定稿</title><g id="图层_1" data-name="图层 1"><rect class="cls-1" x="0.24" y="0.06" width="100" height="600" rx="50"/><path class="cls-2" d="M1263.08,293.89l-98.14,26.3a110.93,110.93,0,0,0-164.94.32V250a49.44,49.44,0,0,0-2-13.83,178.57,178.57,0,0,1,265,57.72Z" transform="translate(-549.76 -199.94)"/><path class="cls-2" d="M1284.36,378.48a178.61,178.61,0,0,1-131,172.14l-16-59.38a111.09,111.09,0,0,0,47.24-140.55l92-24.64A178.35,178.35,0,0,1,1284.36,378.48Z" transform="translate(-549.76 -199.94)"/><path class="cls-1" d="M1042.65,291.06a111.41,111.41,0,0,0-56.36,48.38V291.06Z" transform="translate(-549.76 -199.94)"/><path class="cls-1" d="M986.29,339.44A111.06,111.06,0,0,0,1000,468.76V750a50,50,0,0,1-100,0V250a50,50,0,0,1,98-13.83,49.44,49.44,0,0,1,2,13.83v70.51A111.93,111.93,0,0,0,986.29,339.44Z" transform="translate(-549.76 -199.94)"/><rect class="cls-1" x="724.77" y="144.7" width="100" height="710.42" rx="50" transform="translate(-696.37 334.85) rotate(-35)"/><path class="cls-2" d="M1270.79,796.81a50.15,50.15,0,0,1-61.24-35.36l-72.38-270.12.16-.09a111.09,111.09,0,0,0,47.24-140.55l7.14-1.91a49.68,49.68,0,0,1,18,26.74l96.48,360.05A50.16,50.16,0,0,1,1270.79,796.81Z" transform="translate(-549.76 -199.94)"/><path class="cls-2" d="M1164.16,250a50.27,50.27,0,0,1-30.53,46,110.86,110.86,0,0,0-109,4H950a50,50,0,0,1,0-100h164.13A50.15,50.15,0,0,1,1164.16,250Z" transform="translate(-549.76 -199.94)"/></g><g id="图层_2" data-name="图层 2"><circle class="cls-1" cx="532.86" cy="194.7" r="58"/></g></svg>